<svg id="svg" version="1.1" xmlns="http://www.w3.org/2000/svg" xmlns:xlink="http://www.w3.org/1999/xlink" width="400" height="400" viewBox="0, 0, 400,400"><g id="svgg"><path id="path0" d="M2.043 3.920 C 1.364 5.189,1.620 395.673,2.300 395.900 C 2.576 395.992,24.584 374.272,51.208 347.633 C 81.042 317.783,99.902 299.200,100.364 299.200 C 100.848 299.200,101.210 298.811,101.388 298.100 C 101.628 297.137,138.317 260.254,188.026 211.004 C 199.238 199.895,198.813 200.456,197.493 198.495 C 196.940 197.673,190.254 190.700,182.634 183.000 C 164.586 164.761,154.637 154.759,153.730 153.944 C 153.328 153.583,130.832 131.083,103.739 103.944 C 62.815 62.952,16.482 16.787,5.088 5.651 C 2.634 3.253,2.454 3.151,2.043 3.920 " stroke="none" fill="#cb04cb" fill-rule="evenodd"></path><path id="path1" d="M394.955 203.309 C 393.578 204.109,391.273 206.076,389.478 207.983 C 388.555 208.964,370.790 226.802,350.000 247.624 C 307.652 290.035,301.251 296.557,300.423 298.135 C 299.743 299.432,294.647 294.133,342.528 341.929 C 360.309 359.678,375.069 374.433,375.328 374.719 C 375.588 375.004,376.494 375.904,377.343 376.719 C 378.192 377.533,382.152 381.454,386.143 385.431 C 397.580 396.826,396.980 396.977,397.047 382.686 C 397.344 318.825,397.487 207.626,397.274 205.604 C 396.981 202.824,396.540 202.388,394.955 203.309 " stroke="none" fill="#0684fa" fill-rule="evenodd"></path><path id="path2" d="M393.084 7.100 C 391.592 8.585,390.063 10.267,389.686 10.839 C 389.308 11.410,387.920 12.886,386.600 14.118 C 374.408 25.498,206.604 193.342,198.546 202.216 C 196.757 204.187,189.197 211.862,181.746 219.270 C 174.296 226.679,153.483 247.379,135.496 265.270 C 117.509 283.162,102.794 298.102,102.796 298.471 C 102.805 300.010,198.237 395.600,199.764 395.600 C 200.085 395.600,215.129 380.885,233.195 362.900 C 299.818 296.578,299.042 297.327,299.528 298.785 C 299.608 299.024,300.225 298.450,300.901 297.510 C 302.530 295.240,305.828 291.890,350.000 247.637 C 370.790 226.808,388.559 208.964,389.486 207.983 C 394.759 202.408,397.041 201.620,397.321 205.280 C 397.410 206.446,397.409 206.230,397.320 204.800 C 397.230 203.370,397.169 201.390,397.183 200.400 C 397.198 199.410,397.289 162.510,397.385 118.400 C 397.570 33.663,397.575 33.040,398.046 34.240 C 398.210 34.658,398.356 30.837,398.372 25.749 C 398.395 17.990,398.303 16.418,397.800 16.000 C 397.346 15.623,397.200 14.603,397.200 11.807 C 397.200 3.594,396.924 3.278,393.084 7.100 M397.600 237.134 C 397.600 252.277,397.534 280.582,397.454 300.034 C 397.371 320.152,397.415 327.726,397.556 317.600 C 397.889 293.640,398.094 209.600,397.819 209.600 C 397.699 209.600,397.600 221.990,397.600 237.134 M317.983 317.700 C 318.964 318.745,319.819 319.600,319.883 319.600 C 320.184 319.600,319.866 319.241,318.100 317.583 L 316.200 315.800 317.983 317.700 M321.983 321.700 C 323.641 323.466,324.000 323.784,324.000 323.483 C 324.000 323.419,323.145 322.564,322.100 321.583 L 320.200 319.800 321.983 321.700 M333.983 333.700 C 334.964 334.745,335.819 335.600,335.883 335.600 C 336.184 335.600,335.866 335.241,334.100 333.583 L 332.200 331.800 333.983 333.700 M349.983 349.700 C 350.964 350.745,351.819 351.600,351.883 351.600 C 352.184 351.600,351.866 351.241,350.100 349.583 L 348.200 347.800 349.983 349.700 M353.983 353.700 C 354.964 354.745,355.819 355.600,355.883 355.600 C 356.184 355.600,355.866 355.241,354.100 353.583 L 352.200 351.800 353.983 353.700 M364.200 364.000 C 365.283 365.100,366.260 366.000,366.370 366.000 C 366.480 366.000,365.683 365.100,364.600 364.000 C 363.517 362.900,362.540 362.000,362.430 362.000 C 362.320 362.000,363.117 362.900,364.200 364.000 M396.893 386.400 C 396.893 387.170,396.975 387.485,397.076 387.100 C 397.176 386.715,397.176 386.085,397.076 385.700 C 396.975 385.315,396.893 385.630,396.893 386.400 M393.688 393.013 C 394.286 393.643,394.847 394.077,394.935 393.979 C 395.023 393.880,394.533 393.365,393.847 392.834 L 392.600 391.869 393.688 393.013 M396.281 393.439 C 395.886 393.968,395.745 394.400,395.967 394.400 C 396.372 394.400,397.382 392.844,397.132 392.605 C 397.060 392.535,396.677 392.911,396.281 393.439 " stroke="none" fill="#4c14f3" fill-rule="evenodd"></path><path id="path3" d="M0.605 1.300 C 0.478 2.015,0.425 91.430,0.487 200.000 L 0.600 397.400 2.100 397.524 C 3.023 397.601,3.600 397.474,3.600 397.196 C 3.600 396.622,4.607 395.600,5.171 395.600 C 5.407 395.600,5.600 395.407,5.600 395.171 C 5.600 394.618,6.618 393.600,7.171 393.600 C 7.407 393.600,7.600 393.407,7.600 393.171 C 7.600 392.618,8.618 391.600,9.171 391.600 C 9.407 391.600,9.600 391.407,9.600 391.171 C 9.600 390.768,10.563 389.600,10.896 389.600 C 11.269 389.600,15.109 385.989,23.126 378.100 C 27.877 373.425,31.907 369.600,32.082 369.600 C 32.257 369.600,32.400 369.434,32.400 369.231 C 32.400 368.852,34.704 366.400,35.059 366.400 C 35.427 366.400,36.400 365.260,36.400 364.829 C 36.400 364.593,36.593 364.400,36.829 364.400 C 37.382 364.400,38.400 363.382,38.400 362.829 C 38.400 362.593,38.593 362.400,38.829 362.400 C 39.382 362.400,40.400 361.382,40.400 360.829 C 40.400 360.593,40.593 360.400,40.829 360.400 C 41.382 360.400,42.400 359.382,42.400 358.829 C 42.400 358.593,42.593 358.400,42.829 358.400 C 43.382 358.400,44.400 357.382,44.400 356.829 C 44.400 356.593,44.670 356.400,45.000 356.400 C 45.330 356.400,45.600 356.119,45.600 355.776 C 45.600 355.433,45.780 355.264,46.000 355.400 C 46.220 355.536,46.400 355.367,46.400 355.024 C 46.400 354.681,46.670 354.400,47.000 354.400 C 47.330 354.400,47.600 354.119,47.600 353.776 C 47.600 353.433,47.780 353.264,48.000 353.400 C 48.220 353.536,48.400 353.367,48.400 353.024 C 48.400 352.681,48.593 352.400,48.829 352.400 C 49.382 352.400,50.400 351.382,50.400 350.829 C 50.400 350.593,50.593 350.400,50.829 350.400 C 51.382 350.400,52.400 349.382,52.400 348.829 C 52.400 348.593,52.593 348.400,52.829 348.400 C 53.382 348.400,54.400 347.382,54.400 346.829 C 54.400 346.593,54.593 346.400,54.829 346.400 C 55.382 346.400,56.400 345.382,56.400 344.829 C 56.400 344.593,56.593 344.400,56.829 344.400 C 57.382 344.400,58.400 343.382,58.400 342.829 C 58.400 342.593,58.593 342.400,58.829 342.400 C 59.382 342.400,60.400 341.382,60.400 340.829 C 60.400 340.593,60.593 340.400,60.829 340.400 C 61.382 340.400,62.400 339.382,62.400 338.829 C 62.400 338.593,62.593 338.400,62.829 338.400 C 63.382 338.400,64.400 337.382,64.400 336.829 C 64.400 336.593,64.593 336.400,64.829 336.400 C 65.382 336.400,66.400 335.382,66.400 334.829 C 66.400 334.593,66.593 334.400,66.829 334.400 C 67.382 334.400,68.400 333.382,68.400 332.829 C 68.400 332.593,68.593 332.400,68.829 332.400 C 69.382 332.400,70.400 331.382,70.400 330.829 C 70.400 330.593,70.593 330.400,70.829 330.400 C 71.382 330.400,72.400 329.382,72.400 328.829 C 72.400 328.593,72.593 328.400,72.829 328.400 C 73.382 328.400,74.400 327.382,74.400 326.829 C 74.400 326.593,74.593 326.400,74.829 326.400 C 75.382 326.400,76.400 325.382,76.400 324.829 C 76.400 324.593,76.593 324.400,76.829 324.400 C 77.382 324.400,78.400 323.382,78.400 322.829 C 78.400 322.593,78.593 322.400,78.829 322.400 C 79.382 322.400,80.400 321.382,80.400 320.829 C 80.400 320.593,80.593 320.400,80.829 320.400 C 81.382 320.400,82.400 319.382,82.400 318.829 C 82.400 318.593,82.593 318.400,82.829 318.400 C 83.382 318.400,84.400 317.382,84.400 316.829 C 84.400 316.593,84.593 316.400,84.829 316.400 C 85.382 316.400,86.400 315.382,86.400 314.829 C 86.400 314.593,86.593 314.400,86.829 314.400 C 87.382 314.400,88.400 313.382,88.400 312.829 C 88.400 312.593,88.593 312.400,88.829 312.400 C 89.382 312.400,90.400 311.382,90.400 310.829 C 90.400 310.593,90.593 310.400,90.829 310.400 C 91.382 310.400,92.400 309.382,92.400 308.829 C 92.400 308.593,92.593 308.400,92.829 308.400 C 93.382 308.400,94.400 307.382,94.400 306.829 C 94.400 306.593,94.593 306.400,94.829 306.400 C 95.382 306.400,96.400 305.382,96.400 304.829 C 96.400 304.593,96.593 304.400,96.829 304.400 C 97.382 304.400,98.400 303.382,98.400 302.829 C 98.400 302.593,98.670 302.400,99.000 302.400 C 99.330 302.400,99.600 302.220,99.600 302.000 C 99.600 301.780,99.870 301.600,100.200 301.600 C 100.530 301.600,100.800 301.780,100.800 302.000 C 100.800 302.220,101.064 302.400,101.387 302.400 C 101.709 302.400,113.945 314.370,128.578 329.000 C 143.210 343.630,155.345 355.600,155.545 355.600 C 155.745 355.600,156.174 356.005,156.498 356.500 C 157.025 357.303,171.187 371.479,190.700 390.737 C 194.495 394.482,197.600 397.738,197.600 397.973 C 197.600 398.219,198.449 398.400,199.600 398.400 C 200.700 398.400,201.600 398.249,201.600 398.065 C 201.600 397.659,212.776 386.400,213.180 386.400 C 213.337 386.400,213.706 385.950,214.000 385.400 C 214.294 384.850,214.744 384.400,215.000 384.400 C 215.256 384.400,215.695 383.970,215.976 383.444 C 216.258 382.918,216.918 382.258,217.444 381.976 C 217.970 381.695,218.400 381.225,218.400 380.932 C 218.400 380.640,218.593 380.400,218.829 380.400 C 219.382 380.400,220.400 379.382,220.400 378.829 C 220.400 378.593,220.593 378.400,220.829 378.400 C 221.382 378.400,222.400 377.382,222.400 376.829 C 222.400 376.593,222.593 376.400,222.829 376.400 C 223.382 376.400,224.400 375.382,224.400 374.829 C 224.400 374.593,224.593 374.400,224.829 374.400 C 225.382 374.400,226.400 373.382,226.400 372.829 C 226.400 372.593,226.593 372.400,226.829 372.400 C 227.382 372.400,228.400 371.382,228.400 370.829 C 228.400 370.593,228.681 370.400,229.024 370.400 C 229.367 370.400,229.536 370.220,229.400 370.000 C 229.264 369.780,229.433 369.600,229.776 369.600 C 230.119 369.600,230.400 369.330,230.400 369.000 C 230.400 368.670,230.681 368.400,231.024 368.400 C 231.367 368.400,231.536 368.220,231.400 368.000 C 231.264 367.780,231.433 367.600,231.776 367.600 C 232.119 367.600,232.400 367.330,232.400 367.000 C 232.400 366.670,232.670 366.400,233.000 366.400 C 233.330 366.400,233.555 366.175,233.500 365.900 C 233.445 365.625,233.625 365.445,233.900 365.500 C 234.175 365.555,234.400 365.330,234.400 365.000 C 234.400 364.670,234.670 364.400,235.000 364.400 C 235.330 364.400,235.600 364.119,235.600 363.776 C 235.600 363.433,235.780 363.264,236.000 363.400 C 236.220 363.536,236.400 363.367,236.400 363.024 C 236.400 362.681,236.593 362.400,236.829 362.400 C 237.382 362.400,238.400 361.382,238.400 360.829 C 238.400 360.593,238.593 360.400,238.829 360.400 C 239.382 360.400,240.400 359.382,240.400 358.829 C 240.400 358.593,240.593 358.400,240.829 358.400 C 241.382 358.400,242.400 357.382,242.400 356.829 C 242.400 356.593,242.593 356.400,242.829 356.400 C 243.382 356.400,244.400 355.382,244.400 354.829 C 244.400 354.593,244.593 354.400,244.829 354.400 C 245.382 354.400,246.400 353.382,246.400 352.829 C 246.400 352.593,246.593 352.400,246.829 352.400 C 247.382 352.400,248.400 351.382,248.400 350.829 C 248.400 350.593,248.593 350.400,248.829 350.400 C 249.382 350.400,250.400 349.382,250.400 348.829 C 250.400 348.593,250.593 348.400,250.829 348.400 C 251.382 348.400,252.400 347.382,252.400 346.829 C 252.400 346.593,252.593 346.400,252.829 346.400 C 253.382 346.400,254.400 345.382,254.400 344.829 C 254.400 344.593,254.593 344.400,254.829 344.400 C 255.382 344.400,256.400 343.382,256.400 342.829 C 256.400 342.593,256.593 342.400,256.829 342.400 C 257.382 342.400,258.400 341.382,258.400 340.829 C 258.400 340.593,258.593 340.400,258.829 340.400 C 259.382 340.400,260.400 339.382,260.400 338.829 C 260.400 338.593,260.593 338.400,260.829 338.400 C 261.382 338.400,262.400 337.382,262.400 336.829 C 262.400 336.593,262.593 336.400,262.829 336.400 C 263.382 336.400,264.400 335.382,264.400 334.829 C 264.400 334.593,264.593 334.400,264.829 334.400 C 265.382 334.400,266.400 333.382,266.400 332.829 C 266.400 332.593,266.593 332.400,266.829 332.400 C 267.382 332.400,268.400 331.382,268.400 330.829 C 268.400 330.593,268.593 330.400,268.829 330.400 C 269.382 330.400,270.400 329.382,270.400 328.829 C 270.400 328.593,270.593 328.400,270.829 328.400 C 271.382 328.400,272.400 327.382,272.400 326.829 C 272.400 326.593,272.593 326.400,272.829 326.400 C 273.382 326.400,274.400 325.382,274.400 324.829 C 274.400 324.593,274.593 324.400,274.829 324.400 C 275.382 324.400,276.400 323.382,276.400 322.829 C 276.400 322.593,276.593 322.400,276.829 322.400 C 277.382 322.400,278.400 321.382,278.400 320.829 C 278.400 320.593,278.593 320.400,278.829 320.400 C 279.382 320.400,280.400 319.382,280.400 318.829 C 280.400 318.593,280.593 318.400,280.829 318.400 C 281.382 318.400,282.400 317.382,282.400 316.829 C 282.400 316.593,282.593 316.400,282.829 316.400 C 283.382 316.400,284.400 315.382,284.400 314.829 C 284.400 314.593,284.640 314.400,284.932 314.400 C 285.225 314.400,285.706 313.950,286.000 313.400 C 286.294 312.850,286.775 312.400,287.068 312.400 C 287.360 312.400,287.600 312.256,287.600 312.081 C 287.600 311.723,290.709 308.400,291.043 308.400 C 291.424 308.400,292.400 307.270,292.400 306.829 C 292.400 306.593,292.593 306.400,292.829 306.400 C 293.382 306.400,294.400 305.382,294.400 304.829 C 294.400 304.593,294.593 304.400,294.829 304.400 C 295.382 304.400,296.400 303.382,296.400 302.829 C 296.400 302.593,296.655 302.400,296.967 302.400 C 297.278 302.400,297.594 302.218,297.668 301.996 C 297.843 301.470,299.600 301.131,299.600 301.623 C 299.600 302.146,323.855 326.400,324.378 326.400 C 324.610 326.400,324.755 326.625,324.700 326.900 C 324.645 327.175,324.825 327.355,325.100 327.300 C 325.375 327.245,325.600 327.409,325.600 327.664 C 325.600 328.170,327.941 330.400,328.472 330.400 C 329.218 330.400,327.880 328.689,325.246 326.274 C 323.351 324.537,312.800 313.902,312.800 313.729 C 312.800 313.549,312.197 312.912,304.197 304.655 C 301.669 302.045,299.600 299.750,299.600 299.555 C 299.600 299.360,299.309 299.200,298.953 299.200 C 298.512 299.200,298.371 299.444,298.508 299.970 C 298.648 300.505,298.543 300.676,298.165 300.531 C 297.579 300.306,296.400 301.268,296.400 301.971 C 296.400 302.207,296.207 302.400,295.971 302.400 C 295.418 302.400,294.400 303.418,294.400 303.971 C 294.400 304.207,294.238 304.400,294.041 304.400 C 293.843 304.400,283.448 314.579,270.941 327.021 C 201.589 396.006,198.800 398.704,198.800 396.800 C 198.800 396.580,198.530 396.400,198.200 396.400 C 197.870 396.400,197.600 396.207,197.600 395.971 C 197.600 395.418,196.582 394.400,196.029 394.400 C 195.793 394.400,195.600 394.207,195.600 393.971 C 195.600 393.418,194.582 392.400,194.029 392.400 C 193.793 392.400,193.600 392.220,193.600 392.000 C 193.600 391.780,192.880 390.880,192.000 390.000 C 191.120 389.120,190.220 388.400,190.000 388.400 C 189.780 388.400,189.600 388.207,189.600 387.971 C 189.600 387.418,188.582 386.400,188.029 386.400 C 187.793 386.400,187.600 386.207,187.600 385.971 C 187.600 385.418,186.582 384.400,186.029 384.400 C 185.793 384.400,185.600 384.207,185.600 383.971 C 185.600 383.418,184.582 382.400,184.029 382.400 C 183.793 382.400,183.600 382.207,183.600 381.971 C 183.600 381.418,182.582 380.400,182.029 380.400 C 181.793 380.400,181.600 380.207,181.600 379.971 C 181.600 379.418,180.582 378.400,180.029 378.400 C 179.793 378.400,179.600 378.207,179.600 377.971 C 179.600 377.418,178.582 376.400,178.029 376.400 C 177.793 376.400,177.600 376.207,177.600 375.971 C 177.600 375.418,176.582 374.400,176.029 374.400 C 175.793 374.400,175.600 374.207,175.600 373.971 C 175.600 373.418,174.582 372.400,174.029 372.400 C 173.793 372.400,173.600 372.207,173.600 371.971 C 173.600 371.450,172.595 370.400,172.096 370.400 C 171.898 370.400,171.494 369.950,171.200 369.400 C 170.906 368.850,170.425 368.400,170.132 368.400 C 169.840 368.400,169.600 368.207,169.600 367.971 C 169.600 367.450,168.595 366.400,168.096 366.400 C 167.898 366.400,167.494 365.950,167.200 365.400 C 166.906 364.850,166.425 364.400,166.132 364.400 C 165.840 364.400,165.600 364.207,165.600 363.971 C 165.600 363.418,164.582 362.400,164.029 362.400 C 163.793 362.400,163.600 362.207,163.600 361.971 C 163.600 361.418,162.582 360.400,162.029 360.400 C 161.793 360.400,161.600 360.207,161.600 359.971 C 161.600 359.450,160.595 358.400,160.096 358.400 C 159.898 358.400,159.494 357.950,159.200 357.400 C 158.906 356.850,158.425 356.400,158.132 356.400 C 157.840 356.400,157.600 356.207,157.600 355.971 C 157.600 355.450,156.595 354.400,156.096 354.400 C 155.898 354.400,155.494 353.950,155.200 353.400 C 154.906 352.850,154.425 352.400,154.132 352.400 C 153.840 352.400,153.600 352.207,153.600 351.971 C 153.600 351.418,152.582 350.400,152.029 350.400 C 151.793 350.400,151.600 350.160,151.600 349.868 C 151.600 349.575,151.150 349.094,150.600 348.800 C 150.050 348.506,149.600 348.102,149.600 347.904 C 149.600 347.437,148.563 346.400,148.096 346.400 C 147.898 346.400,147.494 345.950,147.200 345.400 C 146.906 344.850,146.425 344.400,146.132 344.400 C 145.840 344.400,145.600 344.207,145.600 343.971 C 145.600 343.418,144.582 342.400,144.029 342.400 C 143.793 342.400,143.600 342.207,143.600 341.971 C 143.600 341.418,142.582 340.400,142.029 340.400 C 141.793 340.400,141.600 340.207,141.600 339.971 C 141.600 339.418,140.582 338.400,140.029 338.400 C 139.793 338.400,139.600 338.207,139.600 337.971 C 139.600 337.418,138.582 336.400,138.029 336.400 C 137.793 336.400,137.600 336.220,137.600 336.000 C 137.600 335.479,134.521 332.400,134.000 332.400 C 133.780 332.400,133.600 332.207,133.600 331.971 C 133.600 331.418,132.582 330.400,132.029 330.400 C 131.793 330.400,131.600 330.229,131.600 330.020 C 131.600 329.244,101.182 299.200,100.396 299.200 C 99.891 299.200,82.468 316.356,51.208 347.633 C 24.584 374.272,2.576 395.992,2.300 395.900 C 1.553 395.651,1.371 4.866,2.117 3.845 C 2.718 3.024,19.700 19.750,103.600 103.800 C 130.770 131.018,153.328 153.583,153.730 153.944 C 154.724 154.837,165.938 166.121,182.954 183.348 C 190.748 191.239,197.443 198.286,197.831 199.006 L 198.537 200.316 290.668 108.175 C 341.341 57.498,382.800 15.757,382.800 15.417 C 382.800 15.078,383.135 14.800,383.544 14.800 C 383.953 14.800,384.626 14.350,385.039 13.800 C 385.452 13.250,386.017 12.800,386.295 12.800 C 386.573 12.800,386.800 12.607,386.800 12.371 C 386.800 11.818,387.818 10.800,388.371 10.800 C 388.607 10.800,388.800 10.648,388.800 10.461 C 388.800 10.275,389.430 9.474,390.200 8.681 C 390.970 7.888,391.600 7.128,391.600 6.991 C 391.600 6.583,392.710 5.600,393.171 5.600 C 393.407 5.600,393.600 5.330,393.600 5.000 C 393.600 4.071,392.885 4.285,391.600 5.600 C 390.955 6.260,390.315 6.800,390.178 6.800 C 389.774 6.800,388.428 8.555,388.413 9.100 C 388.406 9.375,388.175 9.603,387.900 9.608 C 387.263 9.617,380.800 15.758,380.800 16.354 C 380.800 16.599,380.605 16.800,380.367 16.800 C 380.128 16.800,372.988 23.730,364.499 32.200 C 356.010 40.670,348.915 47.600,348.733 47.600 C 348.550 47.600,348.400 47.748,348.400 47.928 C 348.400 48.342,343.241 53.600,342.835 53.600 C 342.670 53.600,342.294 54.050,342.000 54.600 C 341.706 55.150,341.302 55.600,341.104 55.600 C 340.605 55.600,339.600 56.650,339.600 57.171 C 339.600 57.407,339.360 57.600,339.068 57.600 C 338.775 57.600,338.294 58.050,338.000 58.600 C 337.706 59.150,337.302 59.600,337.104 59.600 C 336.605 59.600,335.600 60.650,335.600 61.171 C 335.600 61.407,335.407 61.600,335.171 61.600 C 334.618 61.600,333.600 62.618,333.600 63.171 C 333.600 63.407,333.407 63.600,333.171 63.600 C 332.618 63.600,331.600 64.618,331.600 65.171 C 331.600 65.407,331.407 65.600,331.171 65.600 C 330.618 65.600,329.600 66.618,329.600 67.171 C 329.600 67.407,329.407 67.600,329.171 67.600 C 328.618 67.600,327.600 68.618,327.600 69.171 C 327.600 69.407,327.407 69.600,327.171 69.600 C 326.618 69.600,325.600 70.618,325.600 71.171 C 325.600 71.407,325.407 71.600,325.171 71.600 C 324.618 71.600,323.600 72.618,323.600 73.171 C 323.600 73.407,323.407 73.600,323.171 73.600 C 322.618 73.600,321.600 74.618,321.600 75.171 C 321.600 75.407,321.407 75.600,321.171 75.600 C 320.618 75.600,319.600 76.618,319.600 77.171 C 319.600 77.407,319.319 77.600,318.976 77.600 C 318.633 77.600,318.464 77.780,318.600 78.000 C 318.736 78.220,318.567 78.400,318.224 78.400 C 317.881 78.400,317.600 78.670,317.600 79.000 C 317.600 79.330,317.407 79.600,317.171 79.600 C 316.618 79.600,315.600 80.618,315.600 81.171 C 315.600 81.407,315.407 81.600,315.171 81.600 C 314.618 81.600,313.600 82.618,313.600 83.171 C 313.600 83.407,313.407 83.600,313.171 83.600 C 312.618 83.600,311.600 84.618,311.600 85.171 C 311.600 85.407,311.407 85.600,311.171 85.600 C 310.618 85.600,309.600 86.618,309.600 87.171 C 309.600 87.407,309.407 87.600,309.171 87.600 C 308.618 87.600,307.600 88.618,307.600 89.171 C 307.600 89.407,307.407 89.600,307.171 89.600 C 306.618 89.600,305.600 90.618,305.600 91.171 C 305.600 91.407,305.407 91.600,305.171 91.600 C 304.618 91.600,303.600 92.618,303.600 93.171 C 303.600 93.407,303.407 93.600,303.171 93.600 C 302.618 93.600,301.600 94.618,301.600 95.171 C 301.600 95.407,301.407 95.600,301.171 95.600 C 300.618 95.600,299.600 96.618,299.600 97.171 C 299.600 97.407,299.407 97.600,299.171 97.600 C 298.618 97.600,297.600 98.618,297.600 99.171 C 297.600 99.407,297.407 99.600,297.171 99.600 C 296.618 99.600,295.600 100.618,295.600 101.171 C 295.600 101.407,295.407 101.600,295.171 101.600 C 294.618 101.600,293.600 102.618,293.600 103.171 C 293.600 103.407,293.407 103.600,293.171 103.600 C 292.618 103.600,291.600 104.618,291.600 105.171 C 291.600 105.407,291.407 105.600,291.171 105.600 C 290.618 105.600,289.600 106.618,289.600 107.171 C 289.600 107.407,289.407 107.600,289.171 107.600 C 288.618 107.600,287.600 108.618,287.600 109.171 C 287.600 109.407,287.407 109.600,287.171 109.600 C 286.618 109.600,285.600 110.618,285.600 111.171 C 285.600 111.407,285.407 111.600,285.171 111.600 C 284.618 111.600,283.600 112.618,283.600 113.171 C 283.600 113.407,283.407 113.600,283.171 113.600 C 282.618 113.600,281.600 114.618,281.600 115.171 C 281.600 115.407,281.407 115.600,281.171 115.600 C 280.618 115.600,279.600 116.618,279.600 117.171 C 279.600 117.407,279.407 117.600,279.171 117.600 C 278.618 117.600,277.600 118.618,277.600 119.171 C 277.600 119.407,277.407 119.600,277.171 119.600 C 276.618 119.600,275.600 120.618,275.600 121.171 C 275.600 121.407,275.407 121.600,275.171 121.600 C 274.618 121.600,273.600 122.618,273.600 123.171 C 273.600 123.407,273.407 123.600,273.171 123.600 C 272.618 123.600,271.600 124.618,271.600 125.171 C 271.600 125.407,271.407 125.600,271.171 125.600 C 270.618 125.600,269.600 126.618,269.600 127.171 C 269.600 127.407,269.407 127.600,269.171 127.600 C 268.618 127.600,267.600 128.618,267.600 129.171 C 267.600 129.407,267.407 129.600,267.171 129.600 C 266.618 129.600,265.600 130.618,265.600 131.171 C 265.600 131.407,265.407 131.600,265.171 131.600 C 264.618 131.600,263.600 132.618,263.600 133.171 C 263.600 133.407,263.407 133.600,263.171 133.600 C 262.618 133.600,261.600 134.618,261.600 135.171 C 261.600 135.407,261.407 135.600,261.171 135.600 C 260.618 135.600,259.600 136.618,259.600 137.171 C 259.600 137.407,259.407 137.600,259.171 137.600 C 258.618 137.600,257.600 138.618,257.600 139.171 C 257.600 139.407,257.407 139.600,257.171 139.600 C 256.618 139.600,255.600 140.618,255.600 141.171 C 255.600 141.407,255.407 141.600,255.171 141.600 C 254.618 141.600,253.600 142.618,253.600 143.171 C 253.600 143.407,253.407 143.600,253.171 143.600 C 252.618 143.600,251.600 144.618,251.600 145.171 C 251.600 145.407,251.407 145.600,251.171 145.600 C 250.618 145.600,249.600 146.618,249.600 147.171 C 249.600 147.407,249.407 147.600,249.171 147.600 C 248.618 147.600,247.600 148.618,247.600 149.171 C 247.600 149.407,247.407 149.600,247.171 149.600 C 246.618 149.600,245.600 150.618,245.600 151.171 C 245.600 151.407,245.407 151.600,245.171 151.600 C 244.618 151.600,243.600 152.618,243.600 153.171 C 243.600 153.407,243.407 153.600,243.171 153.600 C 242.618 153.600,241.600 154.618,241.600 155.171 C 241.600 155.407,241.407 155.600,241.171 155.600 C 240.618 155.600,239.600 156.618,239.600 157.171 C 239.600 157.407,239.407 157.600,239.171 157.600 C 238.618 157.600,237.600 158.618,237.600 159.171 C 237.600 159.407,237.407 159.600,237.171 159.600 C 236.618 159.600,235.600 160.618,235.600 161.171 C 235.600 161.407,235.407 161.600,235.171 161.600 C 234.618 161.600,233.600 162.618,233.600 163.171 C 233.600 163.407,233.407 163.600,233.171 163.600 C 232.618 163.600,231.600 164.618,231.600 165.171 C 231.600 165.407,231.407 165.600,231.171 165.600 C 230.618 165.600,229.600 166.618,229.600 167.171 C 229.600 167.407,229.407 167.600,229.171 167.600 C 228.618 167.600,227.600 168.618,227.600 169.171 C 227.600 169.407,227.407 169.600,227.171 169.600 C 226.618 169.600,225.600 170.618,225.600 171.171 C 225.600 171.407,225.407 171.600,225.171 171.600 C 224.618 171.600,223.600 172.618,223.600 173.171 C 223.600 173.407,223.407 173.600,223.171 173.600 C 222.618 173.600,221.600 174.618,221.600 175.171 C 221.600 175.407,221.407 175.600,221.171 175.600 C 220.618 175.600,219.600 176.618,219.600 177.171 C 219.600 177.407,219.407 177.600,219.171 177.600 C 218.618 177.600,217.600 178.618,217.600 179.171 C 217.600 179.407,217.407 179.600,217.171 179.600 C 216.618 179.600,215.600 180.618,215.600 181.171 C 215.600 181.407,215.407 181.600,215.171 181.600 C 214.618 181.600,213.600 182.618,213.600 183.171 C 213.600 183.407,213.407 183.600,213.171 183.600 C 212.618 183.600,211.600 184.618,211.600 185.171 C 211.600 185.407,211.407 185.600,211.171 185.600 C 210.618 185.600,209.600 186.618,209.600 187.171 C 209.600 187.407,209.407 187.600,209.171 187.600 C 208.618 187.600,207.600 188.618,207.600 189.171 C 207.600 189.407,207.330 189.600,207.000 189.600 C 206.670 189.600,206.445 189.825,206.500 190.100 C 206.555 190.375,206.375 190.555,206.100 190.500 C 205.825 190.445,205.600 190.670,205.600 191.000 C 205.600 191.330,205.319 191.600,204.976 191.600 C 204.633 191.600,204.464 191.780,204.600 192.000 C 204.736 192.220,204.567 192.400,204.224 192.400 C 203.881 192.400,203.600 192.670,203.600 193.000 C 203.600 193.330,203.407 193.600,203.171 193.600 C 202.650 193.600,201.600 194.605,201.600 195.104 C 201.600 195.302,201.150 195.706,200.600 196.000 C 200.050 196.294,199.600 196.672,199.600 196.839 C 199.600 197.006,184.821 182.396,166.757 164.371 C 148.693 146.347,133.856 131.600,133.785 131.600 C 133.714 131.600,126.578 124.583,117.928 116.007 C 109.278 107.430,102.057 100.275,101.882 100.107 C 101.708 99.938,99.368 97.605,96.682 94.921 C 71.639 69.898,51.078 49.600,50.772 49.600 C 50.567 49.600,50.400 49.407,50.400 49.171 C 50.400 48.936,50.143 48.486,49.829 48.171 C 49.514 47.857,49.064 47.600,48.829 47.600 C 48.593 47.600,48.400 47.407,48.400 47.171 C 48.400 46.936,48.143 46.486,47.829 46.171 C 47.514 45.857,47.064 45.600,46.829 45.600 C 46.593 45.600,46.400 45.407,46.400 45.171 C 46.400 44.618,45.382 43.600,44.829 43.600 C 44.593 43.600,44.400 43.407,44.400 43.171 C 44.400 42.936,44.143 42.486,43.829 42.171 C 43.514 41.857,43.064 41.600,42.829 41.600 C 42.593 41.600,42.400 41.407,42.400 41.171 C 42.400 40.936,42.143 40.486,41.829 40.171 C 41.514 39.857,41.064 39.600,40.829 39.600 C 40.593 39.600,40.400 39.407,40.400 39.171 C 40.400 38.618,39.382 37.600,38.829 37.600 C 38.593 37.600,38.400 37.407,38.400 37.171 C 38.400 36.936,38.143 36.486,37.829 36.171 C 37.514 35.857,37.064 35.600,36.829 35.600 C 36.593 35.600,36.400 35.407,36.400 35.171 C 36.400 34.936,36.143 34.486,35.829 34.171 C 35.514 33.857,35.064 33.600,34.829 33.600 C 34.593 33.600,34.400 33.407,34.400 33.171 C 34.400 32.618,33.382 31.600,32.829 31.600 C 32.593 31.600,32.400 31.407,32.400 31.171 C 32.400 30.936,32.143 30.486,31.829 30.171 C 31.514 29.857,31.064 29.600,30.829 29.600 C 30.593 29.600,30.400 29.407,30.400 29.171 C 30.400 28.936,30.143 28.486,29.829 28.171 C 29.514 27.857,29.064 27.600,28.829 27.600 C 28.593 27.600,28.400 27.407,28.400 27.171 C 28.400 26.936,28.143 26.486,27.829 26.171 C 27.514 25.857,27.064 25.600,26.829 25.600 C 26.593 25.600,26.400 25.407,26.400 25.171 C 26.400 24.936,26.143 24.486,25.829 24.171 C 25.514 23.857,25.064 23.600,24.829 23.600 C 24.593 23.600,24.400 23.407,24.400 23.171 C 24.400 22.936,24.143 22.486,23.829 22.171 C 23.514 21.857,23.064 21.600,22.829 21.600 C 22.593 21.600,22.400 21.407,22.400 21.171 C 22.400 20.936,22.143 20.486,21.829 20.171 C 21.514 19.857,21.064 19.600,20.829 19.600 C 20.593 19.600,20.400 19.407,20.400 19.171 C 20.400 18.936,20.143 18.486,19.829 18.171 C 19.514 17.857,19.064 17.600,18.829 17.600 C 18.593 17.600,18.400 17.407,18.400 17.171 C 18.400 16.936,18.143 16.486,17.829 16.171 C 17.514 15.857,17.064 15.600,16.829 15.600 C 16.593 15.600,16.400 15.407,16.400 15.171 C 16.400 14.936,16.143 14.486,15.829 14.171 C 15.514 13.857,15.064 13.600,14.829 13.600 C 14.593 13.600,14.400 13.407,14.400 13.171 C 14.400 12.618,13.382 11.600,12.829 11.600 C 12.593 11.600,12.400 11.407,12.400 11.171 C 12.400 10.618,11.382 9.600,10.829 9.600 C 10.593 9.600,10.400 9.407,10.400 9.171 C 10.400 8.936,10.143 8.486,9.829 8.171 C 9.514 7.857,9.064 7.600,8.829 7.600 C 8.593 7.600,8.400 7.407,8.400 7.171 C 8.400 6.936,8.143 6.486,7.829 6.171 C 7.514 5.857,7.064 5.600,6.829 5.600 C 6.593 5.600,6.400 5.407,6.400 5.171 C 6.400 4.618,5.382 3.600,4.829 3.600 C 4.593 3.600,4.400 3.407,4.400 3.171 C 4.400 2.625,3.599 1.831,2.707 1.493 C 2.288 1.334,2.107 0.987,2.250 0.615 C 2.415 0.184,2.239 -0.000,1.661 -0.000 C 1.045 -0.000,0.778 0.328,0.605 1.300 M396.173 1.384 C 395.754 1.943,395.183 2.400,394.905 2.400 C 394.627 2.400,394.400 2.655,394.400 2.967 C 394.400 3.278,394.175 3.616,393.900 3.717 C 393.500 3.863,393.500 4.006,393.900 4.430 C 394.312 4.866,394.400 4.840,394.400 4.280 C 394.400 3.906,394.670 3.600,395.000 3.600 C 395.330 3.600,395.600 3.440,395.600 3.245 C 395.600 3.049,396.241 2.769,397.025 2.622 C 398.199 2.402,398.428 2.201,398.325 1.481 C 398.147 0.240,397.069 0.191,396.173 1.384 M398.326 118.200 C 398.148 235.632,398.495 356.932,399.000 353.400 C 399.619 349.069,399.546 37.309,398.926 36.000 C 398.559 35.225,398.424 53.735,398.326 118.200 M328.617 330.772 C 328.344 331.214,328.975 331.692,329.344 331.322 C 329.725 330.942,329.654 330.400,329.224 330.400 C 329.017 330.400,328.744 330.568,328.617 330.772 M329.600 331.634 C 329.600 332.058,351.437 353.954,361.181 363.300 C 366.754 368.646,368.522 369.703,363.522 364.700 C 361.708 362.885,360.084 361.445,359.912 361.500 C 359.740 361.555,359.600 361.414,359.600 361.188 C 359.600 360.756,330.275 331.200,329.847 331.200 C 329.711 331.200,329.600 331.395,329.600 331.634 M371.355 372.628 C 371.490 372.979,371.600 373.351,371.600 373.456 C 371.600 373.561,371.780 373.536,372.000 373.400 C 372.594 373.033,372.485 372.518,371.755 372.238 C 371.284 372.057,371.176 372.162,371.355 372.628 M373.600 374.829 C 373.600 375.064,373.905 375.559,374.278 375.929 C 374.912 376.557,374.938 376.554,374.678 375.867 C 374.525 375.464,374.400 374.969,374.400 374.767 C 374.400 374.565,374.220 374.400,374.000 374.400 C 373.780 374.400,373.600 374.593,373.600 374.829 M375.798 376.803 C 375.520 377.253,376.506 378.400,377.171 378.400 C 377.407 378.400,377.600 378.593,377.600 378.829 C 377.600 379.064,377.857 379.514,378.171 379.829 C 378.486 380.143,378.936 380.400,379.171 380.400 C 379.407 380.400,379.600 380.593,379.600 380.829 C 379.600 381.064,379.857 381.514,380.171 381.829 C 380.486 382.143,380.936 382.400,381.171 382.400 C 381.407 382.400,381.600 382.593,381.600 382.829 C 381.600 383.367,382.611 384.400,383.138 384.400 C 383.355 384.400,383.614 384.625,383.712 384.900 C 383.810 385.175,384.027 385.274,384.193 385.119 C 384.541 384.795,383.468 383.600,382.829 383.600 C 382.593 383.600,382.400 383.407,382.400 383.171 C 382.400 382.936,382.143 382.486,381.829 382.171 C 381.514 381.857,381.064 381.600,380.829 381.600 C 380.593 381.600,380.400 381.407,380.400 381.171 C 380.400 380.936,380.143 380.486,379.829 380.171 C 379.514 379.857,379.064 379.600,378.829 379.600 C 378.593 379.600,378.400 379.407,378.400 379.171 C 378.400 378.618,377.596 377.829,376.675 377.480 C 376.276 377.329,376.061 377.024,376.198 376.803 C 376.335 376.581,376.357 376.400,376.247 376.400 C 376.137 376.400,375.935 376.581,375.798 376.803 M397.867 384.667 C 397.720 384.813,397.598 386.748,397.596 388.967 C 397.588 395.649,396.870 397.517,395.200 395.200 C 394.883 394.760,394.467 394.400,394.276 394.400 C 394.084 394.400,392.415 392.870,390.566 391.000 C 388.717 389.130,387.023 387.600,386.802 387.600 C 386.581 387.600,386.400 387.407,386.400 387.171 C 386.400 386.330,385.184 385.456,384.694 385.946 C 384.355 386.285,384.412 386.400,384.920 386.400 C 385.294 386.400,385.600 386.593,385.600 386.829 C 385.600 387.382,386.618 388.400,387.171 388.400 C 387.407 388.400,387.600 388.593,387.600 388.829 C 387.600 389.382,388.618 390.400,389.171 390.400 C 389.407 390.400,389.600 390.593,389.600 390.829 C 389.600 391.064,389.857 391.514,390.171 391.829 C 390.486 392.143,390.936 392.400,391.171 392.400 C 391.407 392.400,391.600 392.670,391.600 393.000 C 391.600 393.330,391.757 393.600,391.949 393.600 C 392.141 393.600,393.176 394.495,394.249 395.590 C 395.639 397.007,396.517 397.582,397.300 397.590 L 398.400 397.600 398.400 391.000 C 398.400 387.370,398.340 384.400,398.267 384.400 C 398.193 384.400,398.013 384.520,397.867 384.667 " stroke="none" fill="#d686e6" fill-rule="evenodd"></path><path id="path4" d="M396.500 2.682 C 396.005 2.778,395.600 3.023,395.600 3.228 C 395.600 3.433,395.330 3.600,395.000 3.600 C 394.670 3.600,394.400 3.881,394.400 4.224 C 394.400 4.567,394.220 4.736,394.000 4.600 C 393.780 4.464,393.600 4.633,393.600 4.976 C 393.600 5.319,393.407 5.600,393.171 5.600 C 392.710 5.600,391.600 6.583,391.600 6.991 C 391.600 7.128,390.970 7.888,390.200 8.681 C 389.430 9.474,388.800 10.275,388.800 10.461 C 388.800 10.648,388.607 10.800,388.371 10.800 C 387.818 10.800,386.800 11.818,386.800 12.371 C 386.800 12.607,386.573 12.800,386.295 12.800 C 386.017 12.800,385.452 13.250,385.039 13.800 C 384.626 14.350,383.953 14.800,383.544 14.800 C 383.135 14.800,382.800 15.077,382.800 15.416 C 382.800 15.755,340.774 58.100,289.408 109.516 C 238.043 160.932,195.338 203.695,194.508 204.545 C 193.679 205.394,172.549 226.454,147.554 251.345 C 105.159 293.561,101.200 297.613,101.200 298.785 C 101.200 299.025,108.040 306.066,116.400 314.431 C 124.760 322.797,131.600 329.812,131.600 330.020 C 131.600 330.229,131.793 330.400,132.029 330.400 C 132.582 330.400,133.600 331.418,133.600 331.971 C 133.600 332.207,133.780 332.400,134.000 332.400 C 134.521 332.400,137.600 335.479,137.600 336.000 C 137.600 336.220,137.793 336.400,138.029 336.400 C 138.582 336.400,139.600 337.418,139.600 337.971 C 139.600 338.207,139.793 338.400,140.029 338.400 C 140.582 338.400,141.600 339.418,141.600 339.971 C 141.600 340.207,141.793 340.400,142.029 340.400 C 142.582 340.400,143.600 341.418,143.600 341.971 C 143.600 342.207,143.793 342.400,144.029 342.400 C 144.582 342.400,145.600 343.418,145.600 343.971 C 145.600 344.207,145.840 344.400,146.132 344.400 C 146.425 344.400,146.906 344.850,147.200 345.400 C 147.494 345.950,147.898 346.400,148.096 346.400 C 148.563 346.400,149.600 347.437,149.600 347.904 C 149.600 348.102,150.050 348.506,150.600 348.800 C 151.150 349.094,151.600 349.575,151.600 349.868 C 151.600 350.160,151.793 350.400,152.029 350.400 C 152.582 350.400,153.600 351.418,153.600 351.971 C 153.600 352.207,153.840 352.400,154.132 352.400 C 154.425 352.400,154.906 352.850,155.200 353.400 C 155.494 353.950,155.898 354.400,156.096 354.400 C 156.595 354.400,157.600 355.450,157.600 355.971 C 157.600 356.207,157.840 356.400,158.132 356.400 C 158.425 356.400,158.906 356.850,159.200 357.400 C 159.494 357.950,159.898 358.400,160.096 358.400 C 160.595 358.400,161.600 359.450,161.600 359.971 C 161.600 360.207,161.793 360.400,162.029 360.400 C 162.582 360.400,163.600 361.418,163.600 361.971 C 163.600 362.207,163.793 362.400,164.029 362.400 C 164.582 362.400,165.600 363.418,165.600 363.971 C 165.600 364.207,165.840 364.400,166.132 364.400 C 166.425 364.400,166.906 364.850,167.200 365.400 C 167.494 365.950,167.898 366.400,168.096 366.400 C 168.595 366.400,169.600 367.450,169.600 367.971 C 169.600 368.207,169.840 368.400,170.132 368.400 C 170.425 368.400,170.906 368.850,171.200 369.400 C 171.494 369.950,171.898 370.400,172.096 370.400 C 172.595 370.400,173.600 371.450,173.600 371.971 C 173.600 372.207,173.793 372.400,174.029 372.400 C 174.582 372.400,175.600 373.418,175.600 373.971 C 175.600 374.207,175.793 374.400,176.029 374.400 C 176.582 374.400,177.600 375.418,177.600 375.971 C 177.600 376.207,177.793 376.400,178.029 376.400 C 178.582 376.400,179.600 377.418,179.600 377.971 C 179.600 378.207,179.793 378.400,180.029 378.400 C 180.582 378.400,181.600 379.418,181.600 379.971 C 181.600 380.207,181.793 380.400,182.029 380.400 C 182.582 380.400,183.600 381.418,183.600 381.971 C 183.600 382.207,183.793 382.400,184.029 382.400 C 184.582 382.400,185.600 383.418,185.600 383.971 C 185.600 384.207,185.793 384.400,186.029 384.400 C 186.582 384.400,187.600 385.418,187.600 385.971 C 187.600 386.207,187.793 386.400,188.029 386.400 C 188.582 386.400,189.600 387.418,189.600 387.971 C 189.600 388.207,189.780 388.400,190.000 388.400 C 190.521 388.400,193.600 391.479,193.600 392.000 C 193.600 392.220,193.793 392.400,194.029 392.400 C 194.582 392.400,195.600 393.418,195.600 393.971 C 195.600 394.207,195.793 394.400,196.029 394.400 C 196.582 394.400,197.600 395.418,197.600 395.971 C 197.600 396.207,197.870 396.400,198.200 396.400 C 198.530 396.400,198.800 396.580,198.800 396.800 C 198.800 398.704,201.589 396.006,270.941 327.021 C 283.448 314.579,293.843 304.400,294.041 304.400 C 294.238 304.400,294.400 304.207,294.400 303.971 C 294.400 303.418,295.418 302.400,295.971 302.400 C 296.207 302.400,296.400 302.207,296.400 301.971 C 296.400 301.268,297.579 300.306,298.165 300.531 C 298.543 300.676,298.648 300.505,298.508 299.970 C 298.371 299.444,298.512 299.200,298.953 299.200 C 299.309 299.200,299.600 299.360,299.600 299.555 C 299.600 299.750,301.669 302.045,304.197 304.655 C 312.197 312.912,312.800 313.549,312.800 313.729 C 312.800 313.902,323.351 324.537,325.246 326.274 C 327.403 328.252,328.840 330.011,328.607 330.389 C 328.457 330.632,328.632 330.686,329.049 330.526 C 329.584 330.321,329.679 330.416,329.474 330.951 C 329.311 331.375,329.367 331.544,329.619 331.388 C 330.054 331.119,359.600 360.486,359.600 361.188 C 359.600 361.414,359.745 361.555,359.923 361.500 C 360.330 361.374,366.623 367.694,366.495 368.100 C 366.443 368.265,366.670 368.400,367.000 368.400 C 367.330 368.400,367.600 368.593,367.600 368.829 C 367.600 369.440,368.489 370.248,369.524 370.576 C 370.012 370.731,370.321 371.004,370.210 371.183 C 370.018 371.494,371.172 372.709,371.461 372.500 C 371.905 372.180,372.453 372.484,372.274 372.951 C 372.007 373.647,372.738 374.400,373.680 374.400 C 374.076 374.400,374.400 374.663,374.400 374.984 C 374.400 375.590,376.340 377.600,376.924 377.600 C 377.400 377.600,378.400 378.665,378.400 379.171 C 378.400 379.407,378.593 379.600,378.829 379.600 C 379.382 379.600,380.400 380.618,380.400 381.171 C 380.400 381.407,380.593 381.600,380.829 381.600 C 381.382 381.600,382.400 382.618,382.400 383.171 C 382.400 383.407,382.593 383.600,382.829 383.600 C 383.473 383.600,384.429 384.685,384.307 385.279 C 384.248 385.565,384.435 385.752,384.721 385.693 C 385.315 385.571,386.400 386.527,386.400 387.171 C 386.400 387.407,386.581 387.600,386.802 387.600 C 387.023 387.600,388.717 389.130,390.566 391.000 C 392.415 392.870,394.084 394.400,394.276 394.400 C 394.467 394.400,394.883 394.760,395.200 395.200 C 396.874 397.522,397.588 395.650,397.596 388.924 C 397.598 386.659,397.777 384.738,397.998 384.601 C 398.468 384.311,398.516 35.438,398.046 34.240 C 397.575 33.040,397.570 33.661,397.385 118.400 C 397.289 162.510,397.194 199.410,397.174 200.400 C 397.155 201.390,397.324 203.640,397.551 205.400 C 398.329 211.440,397.445 392.712,396.632 393.825 C 396.303 394.274,395.928 394.348,395.247 394.096 C 393.543 393.465,300.031 300.293,299.498 298.694 C 299.048 297.343,299.120 297.273,233.195 362.900 C 215.129 380.885,200.085 395.600,199.764 395.600 C 198.237 395.600,102.805 300.010,102.796 298.471 C 102.794 298.102,117.509 283.162,135.496 265.270 C 153.483 247.379,174.296 226.679,181.746 219.270 C 189.197 211.862,196.757 204.187,198.546 202.216 C 206.604 193.342,374.408 25.498,386.600 14.118 C 387.920 12.886,389.308 11.410,389.686 10.839 C 390.666 9.353,395.711 4.400,396.244 4.400 C 396.833 4.400,397.200 7.241,397.200 11.807 C 397.200 14.603,397.346 15.623,397.800 16.000 C 398.329 16.439,398.400 15.669,398.400 9.449 C 398.400 4.047,398.283 2.413,397.900 2.454 C 397.625 2.484,396.995 2.587,396.500 2.682 " stroke="none" fill="#7b2ce5" fill-rule="evenodd"></path></g></svg>