<svg xmlns="http://www.w3.org/2000/svg" version="1.0" width="256.000000pt" height="256.000000pt" viewBox="-3 -3 262 262" preserveAspectRatio="xMidYMid meet"><g id="deeditor_bgCarrier" stroke-width="0">
    <rect id="dee_c_e" x="-3" y="-3" width="262" height="262" rx="0" fill="#ffffff" strokewidth="0"/>
  </g>

<g transform="translate(0.000000,256.000000) scale(0.100000,-0.100000)" fill="#000000" stroke="none">
<path d="M0 1280 l0 -1280 1280 0 1280 0 0 1280 0 1280 -1280 0 -1280 0 0 -1280z m2425 0 l0 -1135 -1145 0 -1145 0 -3 1125 c-1 619 0 1131 3 1138 3 10 238 12 1147 10 l1143 -3 0 -1135z" fill="#000000"/>
<path d="M1107 1452 c-741 -741 -777 -779 -777 -813 0 -45 25 -69 71 -69 32 0 84 50 812 778 741 741 777 779 777 813 0 45 -25 69 -71 69 -32 0 -84 -50 -812 -778z" fill="#000000"/>
<path d="M1627 932 c-394 -395 -417 -419 -417 -453 0 -45 25 -69 71 -69 31 0 64 30 451 417 396 396 418 420 418 454 0 45 -25 69 -71 69 -32 0 -64 -30 -452 -418z" fill="#000000"/>
</g>
</svg>