<?xml version="1.0" standalone="no"?>
<!DOCTYPE svg PUBLIC "-//W3C//DTD SVG 20010904//EN"
 "http://www.w3.org/TR/2001/REC-SVG-20010904/DTD/svg10.dtd">
<svg version="1.0" xmlns="http://www.w3.org/2000/svg"
 width="256.000000pt" height="256.000000pt" viewBox="0 0 256.000000 256.000000"
 preserveAspectRatio="xMidYMid meet">

<g transform="translate(0.000000,256.000000) scale(0.100000,-0.100000)"
fill="#000000" stroke="none">
<path d="M0 1280 l0 -1280 1280 0 1280 0 0 1280 0 1280 -1280 0 -1280 0 0
-1280z m2425 0 l0 -1135 -1145 0 -1145 0 -3 1125 c-1 619 0 1131 3 1138 3 10
238 12 1147 10 l1143 -3 0 -1135z"/>
<path d="M1107 1452 c-741 -741 -777 -779 -777 -813 0 -45 25 -69 71 -69 32 0
84 50 812 778 741 741 777 779 777 813 0 45 -25 69 -71 69 -32 0 -84 -50 -812
-778z"/>
<path d="M1627 932 c-394 -395 -417 -419 -417 -453 0 -45 25 -69 71 -69 31 0
64 30 451 417 396 396 418 420 418 454 0 45 -25 69 -71 69 -32 0 -64 -30 -452
-418z"/>
</g>
</svg>
